<?xml version="1.0" encoding="utf-8"?>
<!-- Generator: Adobe Illustrator 16.0.0, SVG Export Plug-In . SVG Version: 6.00 Build 0)  -->
<!DOCTYPE svg PUBLIC "-//W3C//DTD SVG 1.1//EN" "http://www.w3.org/Graphics/SVG/1.1/DTD/svg11.dtd">
<svg version="1.1" xmlns="http://www.w3.org/2000/svg" xmlns:xlink="http://www.w3.org/1999/xlink" x="0px" y="0px"
	 width="841.89px" height="595.28px" viewBox="0 0 841.89 595.28" enable-background="new 0 0 841.89 595.28" xml:space="preserve">
<g id="Layer_1" display="none">
	<path display="inline" fill="#303387" d="M918.984-79.62l-22.021,52.74l73.227-13.236c42.023,17.408,92.125,11.115,128.848-20.542
		c51.944-44.744,57.838-123.379,13.093-175.317c-44.747-51.942-123.401-57.809-175.344-13.068
		C886.787-205.976,879.521-131.449,918.984-79.62z M935.463-84.749c-40.002-48.914-29.238-116.73,11.84-152.099
		c45.219-38.951,113.683-33.851,152.634,11.369c38.935,45.219,33.808,113.68-11.391,152.633
		c-22.9,19.715-51.789,28.137-79.778,25.754c-10.85-0.925-21.563-3.477-31.764-7.621l-58.535,10.781L935.463-84.749z"/>
	<path display="inline" fill="#4D5A9E" d="M1230.002-249.042c-51.939-44.741-130.597-38.874-175.342,13.068
		c-44.746,51.938-38.854,130.573,13.092,175.317c36.723,31.657,86.827,37.95,128.847,20.542l73.228,13.236l-22.022-52.74
		C1287.267-131.449,1280.002-205.976,1230.002-249.042z M1248.322-43.932l-58.535-10.781c-10.202,4.145-20.914,6.696-31.767,7.621
		c-27.988,2.383-56.875-6.039-79.775-25.754c-45.198-38.953-50.325-107.414-11.394-152.633
		c38.954-45.219,107.419-50.319,152.635-11.369c41.08,35.369,51.842,103.185,11.84,152.099L1248.322-43.932z"/>
	<rect x="1111.259" y="-200.857" display="inline" fill="#4D5A9E" width="211.609" height="93.997"/>
	<rect x="841.259" y="-200.857" display="inline" fill="#EDEDF1" width="268.792" height="93.997"/>
	
		<rect x="845.16" y="-202.061" display="inline" fill="none" stroke="#2C317F" stroke-width="13" stroke-miterlimit="10" width="477.856" height="96.775"/>
	<rect x="857.424" y="-176.124" display="inline" fill="none" width="463.852" height="48.619"/>
	<text transform="matrix(1 0 0 1 857.4238 -130.7461)" display="inline"><tspan x="0" y="0" fill="#303387" font-family="'BebasNeueBook'" font-size="64.8256">consultoria</tspan><tspan x="254.111" y="0" font-family="'BebasNeueBook'" font-size="64.8256"> </tspan><tspan x="264.158" y="0" fill="#FFFFFF" font-family="'BebasNeueBold'" font-size="64.8256">integrar</tspan></text>
	<rect x="1075.944" y="449.004" display="inline" fill="#303387" width="116.558" height="51.775"/>
	
		<rect x="929.373" y="448.341" display="inline" fill="none" stroke="#000000" stroke-width="8" stroke-miterlimit="10" width="263.211" height="53.305"/>
	<rect x="935.106" y="462.471" display="inline" fill="none" width="253.009" height="26.779"/>
	<text transform="matrix(1 0 0 1 935.1055 487.4668)" display="inline"><tspan x="0" y="0" font-family="'BebasNeueLight'" font-size="35.7069">consultoria </tspan><tspan x="143.538" y="0" font-family="'BebasNeueBook'" font-size="35.7069"> </tspan><tspan x="149.072" y="0" fill="#FFFFFF" font-family="'BebasNeueBold'" font-size="35.7069">inte</tspan><tspan x="196.955" y="0" fill="#FFFFFF" font-family="'BebasNeueBold'" font-size="35.7069">-</tspan></text>
	<g display="inline">
		<path fill="#272424" d="M1035.744,448.398c9.711-29.904,37.84-51.584,70.939-51.584s61.228,21.68,70.939,51.584h2.842
			c-9.809-31.422-39.171-54.295-73.781-54.295c-34.609,0-63.971,22.873-73.781,54.295H1035.744z"/>
	</g>
	<g display="inline">
		<path fill="#272424" d="M1039.764,448.398c9.564-27.772,35.939-47.787,66.92-47.787c30.978,0,57.354,20.015,66.918,47.787h1.734
			c-9.629-28.688-36.764-49.415-68.652-49.415c-31.891,0-59.023,20.728-68.653,49.415H1039.764z"/>
	</g>
	<g display="inline">
		<path fill="#272424" d="M944.691,448.398c9.711-29.904,37.84-51.584,70.94-51.584c33.099,0,61.227,21.68,70.938,51.584h2.842
			c-9.809-31.422-39.17-54.295-73.78-54.295s-63.972,22.873-73.782,54.295H944.691z"/>
	</g>
	<g display="inline">
		<path fill="#272424" d="M948.711,448.398c9.564-27.772,35.939-47.787,66.92-47.787c30.979,0,57.354,20.015,66.918,47.787h1.735
			c-9.63-28.688-36.765-49.415-68.653-49.415c-31.891,0-59.023,20.728-68.653,49.415H948.711z"/>
	</g>
	<g display="inline">
		<path fill="#272424" d="M1086.926,500.867c-9.711,29.904-37.838,51.583-70.939,51.583c-33.098,0-61.227-21.679-70.938-51.583
			h-2.841c9.808,31.422,39.17,54.295,73.779,54.295c34.611,0,63.973-22.873,73.782-54.295H1086.926z"/>
	</g>
	<g display="inline">
		<path fill="#272424" d="M1082.908,500.867c-9.566,27.771-35.941,47.787-66.92,47.787s-57.355-20.016-66.92-47.787h-1.734
			c9.63,28.688,36.764,49.414,68.654,49.414c31.889,0,59.023-20.727,68.652-49.414H1082.908z"/>
	</g>
	<g display="inline">
		<path fill="#272424" d="M1177.979,500.867c-9.711,29.904-37.839,51.583-70.939,51.583c-33.099,0-61.227-21.679-70.939-51.583
			h-2.84c9.808,31.422,39.17,54.295,73.779,54.295c34.611,0,63.972-22.873,73.782-54.295H1177.979z"/>
	</g>
	<g display="inline">
		<path fill="#272424" d="M1173.961,500.867c-9.566,27.771-35.941,47.787-66.921,47.787c-30.978,0-57.354-20.016-66.919-47.787
			h-1.734c9.63,28.688,36.764,49.414,68.653,49.414s59.023-20.727,68.653-49.414H1173.961z"/>
	</g>
	<path display="inline" fill="#303387" d="M1006.075,280.442l-22.021,52.74l73.227-13.236
		c42.023,17.408,92.125,11.115,128.848-20.541c51.944-44.744,57.838-123.38,13.093-175.317
		c-44.747-51.942-123.401-57.809-175.344-13.068C973.878,154.087,966.612,228.614,1006.075,280.442z M1022.554,275.313
		c-40.002-48.914-29.238-116.729,11.84-152.099c45.219-38.951,113.683-33.851,152.634,11.369
		c38.935,45.219,33.808,113.679-11.391,152.632c-22.9,19.715-51.789,28.137-79.778,25.754c-10.85-0.924-21.563-3.477-31.764-7.621
		l-58.535,10.781L1022.554,275.313z"/>
	<path display="inline" fill="#4D5A9E" d="M1317.093,111.02c-51.939-44.74-130.597-38.874-175.342,13.068
		c-44.746,51.938-38.854,130.573,13.092,175.317c36.723,31.656,86.827,37.949,128.847,20.541l73.228,13.236l-22.022-52.74
		C1374.357,228.614,1367.093,154.087,1317.093,111.02z M1335.413,316.13l-58.535-10.781c-10.202,4.145-20.914,6.697-31.767,7.621
		c-27.988,2.383-56.875-6.039-79.775-25.754c-45.198-38.953-50.325-107.413-11.394-152.632
		c38.954-45.22,107.419-50.32,152.635-11.369c41.08,35.369,51.842,103.185,11.84,152.099L1335.413,316.13z"/>
	<rect x="1198.35" y="159.205" display="inline" fill="#4D5A9E" width="211.609" height="93.997"/>
	<rect x="928.35" y="159.205" display="inline" fill="#EDEDF1" width="271.609" height="93.997"/>
	
		<rect x="932.25" y="158.002" display="inline" fill="none" stroke="#2C317F" stroke-width="13" stroke-miterlimit="10" width="270.814" height="94.662"/>
	<rect x="942.516" y="183.939" display="inline" fill="none" width="253.992" height="48.618"/>
	<text transform="matrix(1 0 0 1 942.5146 229.3174)" display="inline"><tspan x="0" y="0" fill="#303387" font-family="'BebasNeueBook'" font-size="64.8256">consulto</tspan><tspan x="192.658" y="0" fill="#303387" font-family="'BebasNeueBook'" font-size="64.8256">-</tspan></text>
	<rect x="1215.346" y="183.939" display="inline" fill="none" width="197.655" height="48.618"/>
	
		<text transform="matrix(1 0 0 1 1215.3457 229.3174)" display="inline" fill="#FFFFFF" font-family="'BebasNeueBold'" font-size="64.8256">integrar</text>
	
		<rect x="1202.25" y="158.002" display="inline" fill="none" stroke="#2C317F" stroke-width="13" stroke-miterlimit="10" width="213.068" height="94.662"/>
</g>
<g id="Layer_2">
	<g>
		<g>
			<path fill="#4A5694" stroke="#142972" stroke-width="17" stroke-miterlimit="10" d="M244.238,441.188l-32.803,106.246
				l137.457-38.307c83.261,26.592,177.793,5.754,242.344-62.06c91.322-95.851,88.811-249.626-5.686-342.829
				c-94.498-93.213-245.661-91.087-336.978,4.76C160.672,201.259,159.846,347.289,244.238,441.188z M569.082,425.191"/>
		</g>
	</g>
	<g>
		<g>
			<defs>
				<rect id="SVGID_1_" x="310.504" y="90.999" width="218.881" height="254"/>
			</defs>
			<clipPath id="SVGID_2_">
				<use xlink:href="#SVGID_1_"  overflow="visible"/>
			</clipPath>
		</g>
	</g>
	<g>
		<g>
			<defs>
				<rect id="SVGID_3_" x="339.543" y="100.999" width="160.8" height="254"/>
			</defs>
			<clipPath id="SVGID_4_">
				<use xlink:href="#SVGID_3_"  overflow="visible"/>
			</clipPath>
		</g>
	</g>
	<g>
		<g>
			<g>
				<defs>
					<rect id="SVGID_5_" x="230.162" y="80.358" width="218.881" height="254.001"/>
				</defs>
				<clipPath id="SVGID_6_">
					<use xlink:href="#SVGID_5_"  overflow="visible"/>
				</clipPath>
				<path clip-path="url(#SVGID_6_)" fill="#FFFFFF" d="M437.451,215.426c-2.312-2.445-4.555-4.104-7.416-5.801
					c-1.068-0.635-2.025-1.306-2.873-2.087c-1.021,0.717-2.32,1.094-3.828,0.861c-13.723-2.107-25.969,7.337-37.938,12.446
					c-6.701,2.861-13.729,4.768-20.889,5.973c-0.559,0.982-1.538,1.762-3.016,2.082c-9.198,1.994-18.84,3.436-26.823-2.594
					c-7.194-5.434-11.436-13.672-16.823-20.704c-1.426-1.859-1.182-3.697-0.114-5.045c-2.228-9.52-0.009-19.895,2.983-29.223
					c1.807-5.633,3.193-11.002,4.264-16.803c0.766-4.15,1.781-8.328,4.195-11.857c7.292-10.67,21.654-5.605,31.818-3.307
					c6.8,1.539,13.636,2.066,20.328-0.246c4.971-1.719,9.615-4.246,14.586-5.961c6.76-2.33,21.133-2.104,22.625-11.4
					c1.703-10.602-5.926-16.297-14.849-19.336c-9.714-3.309-20.694-6.395-30.934-7.088c-6.706-0.455-12.954-0.988-18.943-4.295
					c-5.097-2.812-9.737-6.24-15.472-7.643c-0.471-0.115-0.886-0.279-1.258-0.479c-4.369,8.559-11.002,16.396-18.732,22.016
					c-7.781,5.658-16.471,9.748-23.748,16.162c-8.189,7.217-16.652,14.588-24.186,22.49c-7.482,7.844-13.904,16.359-22.169,23.486
					c0.052,5.344-0.737,10.654-1.603,16.023c-1.338,8.293-1.477,16.32-1.477,24.705c0,16.792,0.324,33.577-2.719,50.169
					c-1.613,8.793-4.768,17.422-5.734,26.307c-0.727,6.666-1.77,14.646-0.334,21.266c1.449,6.684,6.949,22.402-3.883,24.355
					c-0.35,0.062-0.686,0.092-1.015,0.1c0.265,1.07,0.839,2.047,1.665,2.799c1.036,0.943,2.379,1.457,3.77,1.457
					c0.09,0,0.176,0,0.267-0.004l95.589-4.504c0.967-0.045,1.863-0.332,2.635-0.799c-2.645-0.434-5.188-2.785-4.561-6.199
					c0.975-5.322,1.791-10.672,2.829-15.979c-4.864-1.744-4.401-10.08,1.491-9.693c0.444,0.029,0.877,0.035,1.312,0.043
					c1.602-1.742,4.297-1.801,6.267-0.646c6.353-1.426,11.856-5.002,17.577-8.811c8.66-5.764,18.256-9.537,27.155-14.891
					c9.972-5.998,20.581-10.76,30.567-16.707c4.148-2.469,8.164-5.002,12.438-7.248c3.482-1.83,6.299-3.494,6.684-7.74
					c0.146-1.604,0.895-2.799,1.914-3.598C440.691,231.314,442.24,220.494,437.451,215.426z"/>
			</g>
		</g>
		<g>
			<g>
				<defs>
					<rect id="SVGID_7_" x="449.611" y="82.156" width="158.525" height="250.405"/>
				</defs>
				<clipPath id="SVGID_8_">
					<use xlink:href="#SVGID_7_"  overflow="visible"/>
				</clipPath>
				<path clip-path="url(#SVGID_8_)" fill="#FFFFFF" d="M586.66,173.242l-20.861-9.477l-15.793-24.246
					c-5.01-7.695-15.125-10.062-23.031-5.393l-5.67,3.352l-3.33-36.85c-0.951-10.533-9.643-18.473-20.223-18.473
					c-9.98,0-18.406,7.15-20.027,17.002l-11.572,70.299l-13.553,7.002c-1.986,1.023-3.156,3.145-2.969,5.371l9.848,115.202v29.372
					c0,3.049,2.469,5.521,5.518,5.521h84.037c3.037,0,5.51-2.461,5.518-5.503l0.088-27.373l47.672-48.958
					c0.867-0.889,1.406-2.04,1.537-3.272L607.705,210C609.334,194.473,600.875,179.7,586.66,173.242z"/>
			</g>
		</g>
		<path fill="#292F77" d="M588.178,173.075l-21.16-9.613l-16.02-24.594c-5.082-7.805-15.344-10.207-23.363-5.469l-5.75,3.398
			l-3.379-37.379c-0.965-10.684-9.781-18.738-20.512-18.738c-10.125,0-18.672,7.254-20.316,17.246l-11.738,71.309l-13.746,7.102
			c-2.016,1.039-3.203,3.191-3.012,5.449l9.988,116.856v29.793c0,3.092,2.504,5.602,5.598,5.602h85.242
			c3.082,0,5.59-2.496,5.598-5.582l0.09-27.768l48.355-49.66c0.879-0.9,1.426-2.068,1.559-3.318l3.914-37.35
			C611.178,194.61,602.596,179.626,588.178,173.075L588.178,173.075z M524.678,148.157l8.656-5.117
			c2.84-1.68,6.48-0.824,8.281,1.941l43.902,67.413c1.191,1.83,1.582,4.012,1.102,6.143c-0.484,2.129-1.773,3.93-3.641,5.064
			c-3.531,2.158-8.211,1.223-10.645-2.125l-27.301-37.519c-1.703-2.336-4.91-2.996-7.395-1.516l-11.035,6.57l-3.633-40.199
			C523.557,148.692,524.135,148.478,524.678,148.157L524.678,148.157z M529.451,200.353l9.527-5.672l20.547,28.235l-3.129,1.908
			c-3.527,2.152-8.203,1.225-10.641-2.115l-16.293-22.345C529.459,200.36,529.455,200.356,529.451,200.353L529.451,200.353z
			 M463.67,183.013l-2.066,12.566l-0.941-11.012L463.67,183.013z M546.092,294.498c-1.012,1.043-1.582,2.438-1.586,3.891
			l-0.078,24.449h-74.059v-24.432c0-0.158-0.008-0.318-0.02-0.479l-4.867-56.953l10.926-66.384c0.168-0.52,0.258-1.066,0.266-1.617
			l12.055-73.227c0.75-4.559,4.648-7.867,9.266-7.867c4.895,0,8.918,3.676,9.355,8.547l8.902,98.465
			c0,0.023,0.008,0.051,0.008,0.074c0.012,0.105,0.027,0.211,0.047,0.316c0.012,0.09,0.027,0.176,0.043,0.262
			c0.02,0.082,0.039,0.164,0.062,0.246c0.027,0.109,0.055,0.215,0.09,0.316c0.008,0.023,0.012,0.047,0.02,0.07l19.926,59.097
			c0.789,2.336,2.969,3.811,5.305,3.811c0.594,0,1.199-0.096,1.793-0.293c2.93-0.988,4.504-4.164,3.516-7.1l-8-23.721
			c3.617,3.389,8.398,5.195,13.23,5.195c3.418,0,6.859-0.898,9.941-2.781l4.465-2.723c3.469,2.797,7.797,4.283,12.176,4.283
			c3.414,0,6.859-0.9,9.941-2.783c3.832-2.338,6.652-5.846,8.109-10.018l-2.25,21.465L546.092,294.498z M598.385,209.191
			l-0.527,5.035c-0.371-2.795-1.363-5.5-2.953-7.94l-16.512-25.355l5.152,2.34C593.568,187.825,599.533,198.243,598.385,209.191
			L598.385,209.191z M598.385,209.191"/>
		<path fill="#292F77" d="M448.592,219.062c-2.113-5.988-6.453-10.75-12.223-13.406s-12.211-2.859-18.133-0.566l-54.898,21.227
			c-0.094,0.039-0.188,0.077-0.281,0.116c-3.391,1.325-6.977,2.024-10.668,2.078c-0.16,0.004-0.316,0.004-0.473,0.004
			c-2.434,0-4.809-0.293-7.09-0.843c-0.137-0.039-0.27-0.079-0.406-0.105c-12.223-3.129-21.723-13.711-22.938-26.767
			c-1.175-12.62,6.282-48.151,12.27-53.94l9.125-7.977c0.215,0.082,0.438,0.152,0.668,0.211l31.406,7.594
			c1.367,0.336,2.746,0.5,4.117,0.5c3.09,0,6.133-0.844,8.844-2.484c3.645-2.207,6.266-5.621,7.496-9.664l6.098,1.511
			c11.031,2.712,22.215-4.065,24.922-15.097s-4.062-22.211-15.035-24.906l-60.586-15.59c-0.051-0.016-0.105-0.027-0.156-0.039
			c-6.438-1.457-13.23,0.266-18.156,4.598l-85.68,74.504c-1.082,0.941-1.761,2.258-1.898,3.68l-13.727,140.016
			c-0.027,0.266-0.035,0.539-0.02,0.809l1.148,24.448c0.071,1.485,0.727,2.879,1.824,3.879c1.036,0.942,2.379,1.457,3.77,1.457
			c0.09,0,0.176,0,0.267-0.004l95.589-4.504c3.09-0.144,5.473-2.765,5.329-5.854l-0.927-19.672l100.031-57.263
			C447.959,241.422,452.33,229.668,448.592,219.062L448.592,219.062z M382.111,135.125c-1.355,0.82-2.953,1.062-4.508,0.684
			l-24.445-5.914l4.746-4.148l26.602,6.59C384.025,133.492,383.201,134.465,382.111,135.125L382.111,135.125z M432.635,237.289
			l-103.467,58.597v23.666l-86.2,3.812l12.875-156.352l84.022-73.062c2.242-1.973,5.316-2.762,8.234-2.121l60.562,15.582
			c5.031,1.238,8.125,6.34,6.887,11.375c-1.234,5.035-6.336,8.125-11.363,6.89l-46.422-11.503c-1.773-0.441-3.652,0.012-5.031,1.219
			l-25.871,22.617c-0.097,0.07-0.195,0.141-0.289,0.223c-0.098,0.09-0.199,0.194-0.297,0.289l-25.422,22.223
			c-2.328,2.035-2.566,5.57-0.531,7.898c2.039,2.332,5.574,2.566,7.902,0.531l7.204-6.297c-0.485,1.91-0.954,3.91-1.414,6.02
			c-2.829,12.996-4.31,26.234-3.685,32.941c1.652,17.746,14.496,32.14,31.066,36.507l29.602,13.247
			c0.742,0.332,1.52,0.488,2.285,0.488c2.141,0,4.184-1.235,5.113-3.317c1.266-2.819,0-6.132-2.824-7.397l-9.328-4.172
			c0.398-0.145,0.797-0.289,1.191-0.445c0.062-0.028,0.125-0.051,0.191-0.078l54.648-21.137c3.074-1.188,6.414-1.082,9.41,0.297
			c2.992,1.375,5.246,3.847,6.344,6.957C439.967,228.289,437.701,234.39,432.635,237.289L432.635,237.289z M432.635,237.289"/>
	</g>
	<g>
		<rect x="378.227" y="324.629" fill="#1B3C87" width="401.935" height="126.63"/>
		<polygon fill="#FFFFFF" points="424.715,450.812 78.344,450.812 78.344,324.184 424.715,324.184 476.542,387.574 		"/>
		<polygon fill="#DFC146" points="407.436,449.812 59.543,449.812 59.543,323.184 407.436,325.357 459.491,388.748 		"/>
		<g>
			<path fill="#182B79" d="M109.775,371.728v5.062h-3.842v-5.324c0-6.549-2.531-11.527-9.256-11.527s-9.256,4.979-9.256,11.527
				v31.784c0,6.549,2.531,11.439,9.256,11.439s9.256-4.891,9.256-11.439v-7.247h3.842v6.985c0,8.819-3.842,15.458-13.186,15.458
				s-13.186-6.639-13.186-15.458v-31.261c0-8.82,3.842-15.456,13.186-15.456S109.775,362.907,109.775,371.728z"/>
			<path fill="#182B79" d="M116.064,371.728c0-8.907,4.104-15.456,13.361-15.456c9.432,0,13.535,6.549,13.535,15.456v31.261
				c0,8.906-4.104,15.458-13.535,15.458c-9.258,0-13.361-6.552-13.361-15.458V371.728z M120.082,403.25
				c0,6.636,2.619,11.526,9.344,11.526c6.811,0,9.518-4.891,9.518-11.526v-31.784c0-6.637-2.707-11.527-9.518-11.527
				c-6.725,0-9.344,4.891-9.344,11.527V403.25z"/>
			<path fill="#182B79" d="M153.268,417.92H149.6v-61.125h5.24l18.338,51.607v-51.607h3.668v61.125h-4.455l-19.123-54.489V417.92z"
				/>
			<path fill="#182B79" d="M209.506,371.553v1.312h-3.844v-1.575c0-6.46-2.443-11.351-9.08-11.351s-9.082,4.802-9.082,11.266
				c0,14.845,22.092,15.106,22.092,31.961c0,8.819-3.84,15.281-13.184,15.281s-13.186-6.462-13.186-15.281v-3.146h3.842v3.405
				c0,6.552,2.531,11.266,9.256,11.266c6.723,0,9.256-4.714,9.256-11.266c0-14.668-22.092-14.932-22.092-31.958
				c0-9.169,4.016-15.107,13.01-15.194C205.752,356.271,209.506,362.733,209.506,371.553z"/>
			<path fill="#182B79" d="M219.9,403.165c0,6.549,2.445,11.611,9.168,11.611c6.725,0,9.17-5.062,9.17-11.611v-46.37h3.754v46.193
				c0,8.732-3.666,15.458-13.01,15.458s-13.1-6.726-13.1-15.458v-46.193h4.018V403.165z"/>
			<path fill="#182B79" d="M248.893,417.92v-61.125h4.018v57.458h19.211v3.667H248.893z"/>
			<path fill="#182B79" d="M284.088,417.92v-57.458h-12.4v-3.667h28.904v3.667h-12.488v57.458H284.088z"/>
			<path fill="#182B79" d="M305.311,371.728c0-8.907,4.104-15.456,13.359-15.456c9.432,0,13.535,6.549,13.535,15.456v31.261
				c0,8.906-4.104,15.458-13.535,15.458c-9.256,0-13.359-6.552-13.359-15.458V371.728z M309.326,403.25
				c0,6.636,2.619,11.526,9.344,11.526c6.811,0,9.518-4.891,9.518-11.526v-31.784c0-6.637-2.707-11.527-9.518-11.527
				c-6.725,0-9.344,4.891-9.344,11.527V403.25z"/>
			<path fill="#182B79" d="M351.594,356.795c9.344,0,13.098,5.15,13.098,13.798v5.325c0,7.162-2.793,11.265-8.82,12.663
				c6.289,1.396,8.82,5.849,8.82,12.485v9.52c0,2.53,0.176,5.325,1.484,7.334h-4.191c-1.047-1.832-1.309-4.016-1.309-7.334v-9.607
				c0-8.119-4.455-10.391-11.441-10.391h-6.373v27.332h-4.018v-61.125H351.594z M349.322,386.921
				c7.162,0,11.354-2.007,11.354-10.216v-5.763c0-6.552-2.533-10.48-9.17-10.48h-8.645v26.459H349.322z"/>
			<path fill="#182B79" d="M376.568,356.795v61.125h-4.016v-61.125H376.568z"/>
			<path fill="#182B79" d="M389.406,404.387l-3.057,13.533h-3.668l13.359-61.212h5.854l13.621,61.212h-4.018l-3.055-13.533H389.406z
				 M390.02,400.894h17.811l-8.994-39.557L390.02,400.894z"/>
		</g>
		<g>
			<path fill="#DFC146" d="M516.878,373.649v44.273h-9.131v-61.128h12.727l10.418,36.59v-36.59h9.037v61.128h-10.422
				L516.878,373.649z"/>
			<path fill="#DFC146" d="M544.265,356.795h31.352v8.732h-10.604v52.396h-10.145v-52.396h-10.604V356.795z"/>
			<path fill="#DFC146" d="M590.188,382.557h13.924v8.732h-13.924v17.901h17.52v8.732h-27.664v-61.128h27.664v8.732h-17.52V382.557z
				"/>
			<path fill="#DFC146" d="M629.196,383.865h14.201v19.387c0,9.779-5.164,15.369-15.125,15.369c-9.957,0-15.123-5.59-15.123-15.369
				v-31.784c0-9.782,5.166-15.371,15.123-15.371c9.961,0,15.125,5.589,15.125,15.371v5.936h-9.59v-6.549
				c0-4.365-2.029-6.025-5.258-6.025s-5.256,1.66-5.256,6.025v33.009c0,4.367,2.027,5.938,5.256,5.938s5.258-1.57,5.258-5.938
				v-11.266h-4.611V383.865z"/>
			<g>
				<path fill="#DFC146" d="M490.317,356.795h10.145v61.128h-10.145V356.795z"/>
				<path fill="#DFC146" d="M671.155,417.923c-0.553-1.573-0.924-2.533-0.924-7.511v-9.605c0-5.677-2.027-7.772-6.637-7.772h-3.506
					v24.889h-10.143v-61.128h15.307c10.512,0,15.029,4.629,15.029,14.06v4.804c0,6.287-2.121,10.391-6.639,12.397
					c5.07,2.012,6.732,6.641,6.732,13.013v9.431c0,2.969,0.092,5.152,1.105,7.424H671.155z M660.089,365.527v18.774h3.963
					c3.783,0,6.086-1.571,6.086-6.46v-6.025c0-4.367-1.564-6.289-5.162-6.289H660.089z"/>
				<path fill="#DFC146" d="M719.843,417.923H709.61l-1.752-11.091h-12.451l-1.75,11.091h-9.314l10.326-61.128h14.848
					L719.843,417.923z M696.698,398.535h9.777l-4.891-30.911L696.698,398.535z"/>
				<path fill="#DFC146" d="M745.757,417.923c-0.555-1.573-0.922-2.533-0.922-7.511v-9.605c0-5.677-2.025-7.772-6.637-7.772h-3.506
					v24.889H724.55v-61.128h15.307c10.512,0,15.029,4.629,15.029,14.06v4.804c0,6.287-2.119,10.391-6.639,12.397
					c5.07,2.012,6.734,6.641,6.734,13.013v9.431c0,2.969,0.088,5.152,1.105,7.424H745.757z M734.692,365.527v18.774h3.965
					c3.783,0,6.086-1.571,6.086-6.46v-6.025c0-4.367-1.564-6.289-5.162-6.289H734.692z"/>
			</g>
		</g>
		
			<rect x="58.996" y="323.459" fill="none" stroke="#2C317F" stroke-width="13" stroke-miterlimit="10" width="721.897" height="127.526"/>
	</g>
</g>
</svg>
